<?xml version="1.0" encoding="UTF-8"?>
<svg width="120px" height="120px" viewBox="0 0 120 120" version="1.1" xmlns="http://www.w3.org/2000/svg" xmlns:xlink="http://www.w3.org/1999/xlink">
    <!-- Generator: Sketch 52.1 (67048) - http://www.bohemiancoding.com/sketch -->
    <title>画板</title>
    <desc>Created with Sketch.</desc>
    <g id="画板" stroke="none" stroke-width="1" fill="none" fill-rule="evenodd">
        <circle id="椭圆形" fill="#000000" fill-rule="nonzero" cx="60" cy="60" r="60"></circle>
        <g id="图纸-(1)" transform="translate(38.000000, 32.000000)" fill="#FFFFFF" fill-rule="nonzero">
            <path d="M46.107721,55.9453199 L3.84246575,55.9453199 C1.73038605,55.9453199 0.0124533001,54.2106397 0.0124533001,52.078743 L0.0124533001,3.87349046 C0.0124533001,1.74159371 1.73038605,0.00754208754 3.84246575,0.00754208754 L32.4047323,0.00754208754 C33.3220417,0.00772204623 34.208862,0.339999124 34.9041096,0.944017957 L48.6064757,12.8523457 C49.452093,13.5865249 49.9382617,14.656583 49.9377335,15.7824467 L49.9377335,52.0781145 C49.9377335,54.2106397 48.2198007,55.9453199 46.107721,55.9453199 Z M3.84246575,3.83326599 L3.80261519,52.078743 L46.107721,52.119596 L46.1475716,15.7824467 L32.4302615,3.84332211 C32.4230206,3.83691367 32.4137394,3.83334481 32.4041096,3.83326599 L3.84246575,3.83326599 Z" id="形状"></path>
            <path d="M18.7023661,3.65351291 L22.6581569,3.65351291 L22.6581569,21.2548597 L18.7023661,21.2548597 L18.7023661,3.65351291 Z M18.7023661,40.0459708 L22.6581569,40.0459708 L22.6581569,52.642514 L18.7023661,52.642514 L18.7023661,40.0459708 Z M29.9847447,32.6520224 L29.9847447,28.6591156 L46.4274595,28.6591156 L46.4274595,32.6520224 L29.9847447,32.6520224 Z M3.42166874,32.6518339 L3.42166874,28.658927 L11.3718555,28.658927 L11.3718555,32.6518339 L3.42166874,32.6518339 Z M27.7926526,37.8342536 L13.5684932,37.8342536 L13.5684932,23.476633 L27.7926526,23.476633 L27.7926526,37.8342536 Z M17.3580324,34.0085297 L24.0024907,34.0085297 L24.0024907,27.3017284 L17.3580324,27.3017284 L17.3580324,34.0085297 Z" id="形状"></path>
        </g>
    </g>
</svg>