<?xml version="1.0" encoding="UTF-8"?>
<svg width="120px" height="120px" viewBox="0 0 120 120" version="1.1" xmlns="http://www.w3.org/2000/svg" xmlns:xlink="http://www.w3.org/1999/xlink">
    <!-- Generator: Sketch 52.1 (67048) - http://www.bohemiancoding.com/sketch -->
    <title>画板</title>
    <desc>Created with Sketch.</desc>
    <g id="画板" stroke="none" stroke-width="1" fill="none" fill-rule="evenodd">
        <circle id="椭圆形" fill="#000000" fill-rule="nonzero" cx="60" cy="60" r="60"></circle>
        <g id="数据分析-流量分析" transform="translate(28.000000, 30.000000)" fill="#FFFFFF">
            <path d="M20.7898986,25.2082689 L17.1199426,31.3947002 C17.0586373,31.3882606 16.9853895,31.3882606 16.9244823,31.3882606 C16.5701856,31.3882606 16.234201,31.4442045 15.9169263,31.5428107 L13.3946526,28.992734 C13.4958827,28.6628601 13.5474152,28.3194578 13.5475177,27.9740718 C13.5475177,26.0908948 12.0328,24.5598829 10.170155,24.5598829 C8.30751005,24.5598829 6.79358852,26.0912973 6.79358852,27.9740718 C6.79358852,28.6288973 6.97670813,29.2338161 7.28840957,29.7526054 L3.61208421,35.9386342 C3.55077895,35.9325971 3.4775311,35.9325971 3.41662392,35.9325971 C1.55397895,35.9325971 0.0396593301,37.4636091 0.0396593301,39.346786 C0.0396593301,41.2299629 1.55437703,42.7609748 3.41662392,42.7609748 C5.27887081,42.7609748 6.79358852,41.2295604 6.79358852,39.346786 C6.79356341,38.7193972 6.62249054,38.1041548 6.29916555,37.5686548 L9.97509282,31.3753814 C10.3816009,31.399037 10.7890177,31.3490138 11.1781091,31.2276734 L13.7003828,33.7777501 C13.5991271,34.1074801 13.5475935,34.4507537 13.5475177,34.7960099 C13.5475177,36.6795893 15.0622354,38.2101988 16.9244823,38.2101988 C18.7867292,38.2101988 20.2954756,36.6791868 20.2954756,34.7960099 C20.2954756,34.1415868 20.112356,33.536668 19.8010526,33.0182812 C19.8010526,33.0182812 23.6111349,26.837887 23.6728383,26.837887 L20.7898986,25.2082689 Z" id="路径"></path>
            <path d="M20.9710278,31.2477971 L24.6473531,25.0545237 C25.0537294,25.0781483 25.4610101,25.0281253 25.8499713,24.9068157 L36.0871541,35.2568429 C35.9861183,35.5867619 35.9345903,35.9301344 35.934289,36.2755052 C35.934289,38.1586821 37.4490067,39.689694 39.3112536,39.689694 C41.1742967,39.689694 42.682645,38.1582796 42.682645,36.2755052 C42.6829124,35.6480205 42.5116702,35.0326644 42.1878239,34.497374 L45.8641493,28.3105402 C45.9250565,28.3169798 45.9983043,28.3169798 46.0596096,28.3169798 C47.9222545,28.3169798 49.4365742,26.7855654 49.4365742,24.9027909 C49.4365742,23.0200165 47.9218565,21.4946392 46.0596096,21.4946392 C44.1969646,21.4946392 42.682645,23.0260536 42.682645,24.908828 C42.682645,25.5632511 42.8657646,26.1685724 43.1770679,26.6869592 L39.5067139,32.873793 C39.4458067,32.8673534 39.3721608,32.8673534 39.3112536,32.8673534 C38.9569569,32.8673534 38.6213703,32.9228948 38.3040957,33.021501 L28.067311,22.6718763 C28.1682118,22.3419365 28.2196056,21.9985645 28.219778,21.653214 C28.219778,19.7700371 26.7050603,18.2390252 24.8428134,18.2390252 C22.9805665,18.2390252 21.4658488,19.7704396 21.4658488,21.653214 C21.4659206,22.2807779 21.6371347,22.8961722 21.9606699,23.4317476 C21.9606699,23.4317476 18.1497914,29.6113369 18.0884861,29.6113369 L20.9710278,31.2477971 Z" id="路径"></path>
            <path d="M53.3533435,45.6294087 L64.2055694,56.6378837 C65.206756,57.5969798 65.206756,59.2265979 64.2402029,60.2038054 C63.2744459,61.2184429 61.6629933,61.2534581 60.6944498,60.2392231 L49.7705684,49.2130392 C47.6579254,50.987548 45.29409,52.4549691 42.71489,53.5223307 C39.3741576,54.9370077 35.7879377,55.663964 32.1660057,55.6606763 C24.1242679,55.6606763 16.4595177,52.0557146 11.2294622,45.8085097 C8.59652057,42.695774 12.5913148,39.7806532 15.5996517,43.1304462 C19.8631541,47.8562986 25.8451943,50.535167 32.1660057,50.535167 C35.2284823,50.535167 38.129734,49.9201864 40.7614813,48.8157971 C43.4808374,47.6878279 45.952225,46.0263608 48.0329225,43.9273452 L48.0695464,43.8903175 C50.129244,41.7898045 51.8131483,39.2928544 52.9588402,36.5033056 C54.0332746,33.8779662 54.6431426,30.9270252 54.6431426,27.829986 C54.6422948,24.8944928 54.082203,21.9866418 52.9934737,19.2653344 L52.9584421,19.1566664 C51.8523253,16.4461802 50.2341801,13.9796983 48.1945455,11.8952264 L48.0691483,11.7696544 C45.9732249,9.68725278 43.5015081,7.98599423 40.7614813,6.86107876 C38.148444,5.72167423 35.2292785,5.12520742 32.1660057,5.12520742 C23.0152,5.12520742 15.1354833,10.7735307 11.6593952,18.6849666 C11.2294622,19.6275612 10.3699943,20.1886103 9.34810718,20.1886103 L9.33178565,20.1886103 C8.43609187,20.1886103 7.70202105,19.7531332 7.21755024,19.030692 C6.73467177,18.2869196 6.68013397,17.4179777 7.03920766,16.5840511 C11.3731713,6.75402062 21.2596402,0.0178094845 32.1656077,0.0178094845 C35.8717895,0.0178094845 39.4374469,0.778485773 42.71489,2.15374021 C46.0819024,3.54911835 49.1252708,5.63192247 51.6328153,8.16549773 L51.774534,8.29388701 C54.247445,10.8455736 56.2175732,13.8520561 57.5961455,17.1845427 L57.649489,17.3278235 C58.9747177,20.5886697 59.6920689,24.0990499 59.6920689,27.8295835 C59.6940254,31.4716938 58.9816469,35.0780472 57.5961455,38.4400115 C56.5455109,41.0375397 55.1153222,43.460984 53.3533435,45.6294087 Z" id="路径"></path>
        </g>
    </g>
</svg>