<?xml version="1.0" encoding="UTF-8"?>
<svg width="120px" height="120px" viewBox="0 0 120 120" version="1.1" xmlns="http://www.w3.org/2000/svg" xmlns:xlink="http://www.w3.org/1999/xlink">
    <!-- Generator: Sketch 52.1 (67048) - http://www.bohemiancoding.com/sketch -->
    <title>画板</title>
    <desc>Created with Sketch.</desc>
    <g id="画板" stroke="none" stroke-width="1" fill="none" fill-rule="evenodd">
        <circle id="椭圆形" fill="#000000" fill-rule="nonzero" cx="60" cy="60" r="60"></circle>
        <g id="确认-(1)" transform="translate(34.000000, 29.000000)" fill="#FFFFFF" fill-rule="nonzero">
            <path d="M10.870282,12.8 L14.4937093,12.8 L14.4937093,9.2 L10.870282,9.2 L10.870282,12.8 Z M16.5067245,34.4 L41.8707158,34.4 L41.8707158,30.8 L16.5067245,30.8 L16.5067245,34.4 Z M10.870282,45.2 L14.4937093,45.2 L14.4937093,41.6 L10.870282,41.6 L10.870282,45.2 Z M10.870282,34.4 L14.4937093,34.4 L14.4937093,30.8 L10.870282,30.8 L10.870282,34.4 Z M10.870282,23.6 L14.4937093,23.6 L14.4937093,20 L10.870282,20 L10.870282,23.6 Z M16.5067245,23.6 L41.8707158,23.6 L41.8707158,20 L16.5067245,20 L16.5067245,23.6 Z M16.5067245,12.8 L41.8707158,12.8 L41.8707158,9.2 L16.5067245,9.2 L16.5067245,12.8 Z M52.7409978,40.4 L52.7409978,6.4 C52.7409978,2.4 49.1175705,0 45.0915401,0 L6.84425163,0 C2.81822126,0 0,2.4 0,6.4 L0,52 C0,56 2.81822126,59.6 6.84425163,59.6 L35.0264642,59.6 C37.4420824,61.6 41.0655098,64 44.6889371,64 C51.9357918,64 57.9748373,58 57.9748373,50.8 C57.9748373,46.8 56.3644252,42.8 52.7409978,40.4 Z M16.5067245,41.6 L16.5067245,45.2 L33.4160521,45.2 C32.610846,46.8 32.208243,48.8 32.208243,50.8 C32.208243,52.4 32.610846,54 33.013449,56 L6.84425163,56 C4.83123644,56 3.62342733,54 3.62342733,52 L3.62342733,6.4 C3.62342733,4.4 4.83123644,3.6 6.84425163,3.6 L45.0915401,3.6 C47.1045553,3.6 49.1175705,4.4 49.1175705,6.4 L49.1175705,38.4 C47.1045553,38 46.2993492,37.6 45.0915401,37.6 C41.4681128,37.6 38.2472885,39.2 35.8316703,41.6 L16.5067245,41.6 Z M41.8707158,57.6 L35.8316703,50 L38.2472885,48 L42.2733189,53.2 L52.7409978,44.4 L54.754013,46.8 L41.8707158,57.6 Z" id="形状"></path>
        </g>
    </g>
</svg>