<?xml version="1.0" encoding="UTF-8"?>
<svg width="120px" height="120px" viewBox="0 0 120 120" version="1.1" xmlns="http://www.w3.org/2000/svg" xmlns:xlink="http://www.w3.org/1999/xlink">
    <!-- Generator: Sketch 52.1 (67048) - http://www.bohemiancoding.com/sketch -->
    <title>画板</title>
    <desc>Created with Sketch.</desc>
    <g id="画板" stroke="none" stroke-width="1" fill="none" fill-rule="evenodd">
        <circle id="椭圆形" fill="#000000" fill-rule="nonzero" cx="60" cy="60" r="60"></circle>
        <g id="生产-(9)" transform="translate(24.000000, 27.000000)" fill="#FFFFFF" fill-rule="nonzero">
            <path d="M25.1078511,66.886277 L21.324047,66.886277 C20.5641526,66.886277 19.8434281,66.5902855 19.3107186,66.0606166 C18.7701751,65.5231585 18.4724845,64.8065476 18.4724845,64.0509905 L18.4724845,61.8388439 C18.4724845,61.5350632 18.1512921,61.0988653 17.8614354,61.0053943 L17.7987637,60.9898158 L14.8610276,59.7902716 L14.790522,59.7513253 C14.5241672,59.6111189 14.0071257,59.6890113 13.7956087,59.8993211 L12.2131482,61.4727493 C11.6804387,62.0102074 10.9597141,62.3061988 10.1919857,62.3061988 C9.43209135,62.3061988 8.71136676,62.0102074 8.17082332,61.4727493 L5.48377404,58.8088263 C4.9432306,58.2713681 4.64554001,57.5547573 4.64554001,56.7992001 C4.64554001,56.043643 4.9432306,55.3270322 5.48377404,54.789574 L7.06623455,53.2161458 C7.27775155,53.0058361 7.35609117,52.4761672 7.21507984,52.2035435 L7.18374399,52.1412295 L5.9773137,49.2280506 L5.96164578,49.1657366 C5.86763822,48.8775344 5.4289363,48.550386 5.12341174,48.550386 L2.89856628,48.550386 C2.13867188,48.550386 1.41794729,48.2543945 0.877403846,47.7247256 C0.336860405,47.1872675 0.0391698146,46.4706566 0.0391698146,45.7150995 L0.0391698146,41.9528925 C0.0391698146,41.1973354 0.336860405,40.4807245 0.877403846,39.9432664 C1.41794729,39.4058082 2.13867188,39.1098168 2.89856628,39.1098168 L5.13124571,39.1098168 C5.43677026,39.1098168 5.87547218,38.7904576 5.96947974,38.4944661 L5.98514766,38.4321522 L7.19157795,35.5189732 L7.2229138,35.4566592 C7.36392514,35.1918248 7.28558551,34.6699451 7.07406851,34.4518462 L5.49944196,32.878418 C4.95889852,32.3409598 4.66120793,31.6321382 4.66120793,30.8687919 C4.66120793,30.1054455 4.95889852,29.3966239 5.49944196,28.8591657 L8.17082332,26.203032 C8.71136676,25.6655738 9.43209135,25.3695824 10.1919857,25.3695824 C10.9597141,25.3695824 11.6726047,25.6655738 12.2131482,26.203032 L13.8034427,27.7764602 C14.0149596,27.9867699 14.5398352,28.0646624 14.8140239,27.9244559 L14.8766956,27.8932989 L17.8065977,26.6937547 L17.8692694,26.6781762 C18.159126,26.5847052 18.4803185,26.1562965 18.4803185,25.8447266 L18.4803185,23.6247907 C18.4803185,22.8692336 18.7780091,22.1526228 19.3185525,21.6151646 C19.859096,21.0777065 20.5719866,20.781715 21.339715,20.781715 L25.131353,20.781715 C25.8912474,20.781715 26.611972,21.0777065 27.1525155,21.6151646 C27.6930589,22.1526228 27.9907495,22.8614444 27.9907495,23.6247907 L27.9907495,25.8447266 C27.9907495,26.1485073 28.311942,26.5847052 28.6096326,26.6781762 L28.6723043,26.6937547 L31.6022064,27.8932989 L31.6648781,27.9244559 C31.9312328,28.0646624 32.4639423,27.9867699 32.6754593,27.7764602 L34.2579198,26.203032 C34.7984633,25.6655738 35.5191878,25.3695824 36.2790822,25.3695824 C37.0389766,25.3695824 37.7597012,25.6655738 38.2924107,26.203032 L40.971626,28.866955 C41.5121695,29.4044131 41.8098601,30.1132347 41.8098601,30.8765811 C41.8098601,31.6321382 41.5121695,32.3487491 40.971626,32.8862072 L39.3891655,34.4596354 C39.1776485,34.6699451 39.0993089,35.199614 39.2403202,35.4644485 L39.2716561,35.5267625 L40.4780864,38.4399414 L40.4937543,38.5022554 C40.5877618,38.7982468 41.0264638,39.117606 41.3319883,39.117606 L43.5568338,39.117606 C44.3167282,39.117606 45.0374528,39.4135975 45.5779962,39.9510556 C46.1185397,40.4885138 46.4162303,41.1973354 46.4162303,41.9606817 L46.4162303,45.7228888 C46.4162303,46.4784459 46.1185397,47.1950567 45.5779962,47.7325149 C45.0374528,48.269973 44.3245622,48.5659645 43.5568338,48.5659645 L41.3319883,48.5659645 C41.0264638,48.5659645 40.5877618,48.8853237 40.4937543,49.1813151 L40.4780864,49.2358398 L39.2481542,52.1490188 L39.2168183,52.2113328 C39.075807,52.4761672 39.1541466,53.0058361 39.3656636,53.2239351 L40.9481241,54.789574 C41.4886676,55.3270322 41.7863582,56.043643 41.7863582,56.7992001 C41.7863582,57.5625465 41.4886676,58.2713681 40.9481241,58.8088263 L38.2689088,61.4727493 C37.7361993,62.0102074 37.0233087,62.3061988 36.2555804,62.3061988 L36.2477464,62.3061988 C35.487852,62.3061988 34.7671274,62.0102074 34.226584,61.46496 L32.6519574,59.8993211 C32.4404404,59.6890113 31.9077309,59.6111189 31.6413762,59.7513253 L31.5787045,59.7902716 L28.6409684,60.9898158 L28.5861307,61.0053943 C28.2884401,61.0988653 27.9672476,61.5350632 27.9672476,61.8388439 L27.9672476,64.0509905 C27.9672476,64.8065476 27.669557,65.5231585 27.1290136,66.0606166 C26.5806362,66.5902855 25.8677455,66.886277 25.1078511,66.886277 Z M18.7466732,58.3726283 C20.1802885,58.8477725 21.2613753,60.3277297 21.2613753,61.8388439 L21.2613753,64.0509905 C21.2613753,64.0743583 21.2770433,64.0899368 21.2770433,64.0899368 C21.2770433,64.0899368 21.2927112,64.1055153 21.324047,64.1055153 L25.1078511,64.1055153 C25.131353,64.1055153 25.1470209,64.097726 25.1548549,64.0899368 C25.1548549,64.0899368 25.1705228,64.0743583 25.1705228,64.0509905 L25.1705228,61.8388439 C25.1705228,60.3277297 26.2437758,58.8555618 27.6852249,58.3726283 L30.3879421,57.2665551 C31.7432177,56.5811012 33.5528632,56.8615141 34.6261161,57.9286412 L36.2007426,59.5020694 C36.2164105,59.5176479 36.2320785,59.5176479 36.2399124,59.5176479 C36.2477464,59.5176479 36.2634143,59.5176479 36.2790822,59.5020694 L38.9661315,56.8303571 C38.9817995,56.8147786 38.9817995,56.8069894 38.9817995,56.7836217 C38.9817995,56.7758324 38.9817995,56.7602539 38.9661315,56.7368862 L37.383671,55.1712472 C36.3104181,54.1041202 36.0283954,52.3048038 36.7099502,50.9572638 L37.8223729,48.269973 C38.3080786,46.8445406 39.7886976,45.7696243 41.3084864,45.7696243 L43.5333319,45.7696243 C43.5568338,45.7696243 43.5646678,45.761835 43.5725017,45.7540458 C43.5803357,45.7462565 43.5881696,45.730678 43.5881696,45.7150995 L43.5881696,41.9451032 C43.5881696,41.9217355 43.5725017,41.906157 43.5725017,41.8983677 C43.5646678,41.8905785 43.5568338,41.8827892 43.5333319,41.8827892 L41.3084864,41.8827892 C39.7886976,41.8827892 38.3080786,40.8156622 37.8223729,39.3824405 L36.7099502,36.6951497 C36.0283954,35.3476097 36.3104181,33.5560826 37.383671,32.4811663 L38.9661315,30.9077381 C38.9817995,30.8921596 38.9817995,30.8687919 38.9817995,30.8687919 C38.9817995,30.8532134 38.9739655,30.8376349 38.9661315,30.8298456 L36.2790822,28.1659226 C36.2634143,28.1503441 36.2477464,28.1503441 36.2399124,28.1503441 C36.2242445,28.1503441 36.2085766,28.1581334 36.1929087,28.1659226 L34.6182821,29.7549293 C33.5450292,30.8220564 31.7353838,31.1102586 30.3801082,30.4248047 L27.6852249,29.3187314 C26.2437758,28.835798 25.1705228,27.36363 25.1705228,25.8525158 L25.1705228,23.63258 C25.1705228,23.6092122 25.1548549,23.5936337 25.1548549,23.5936337 C25.1470209,23.5858445 25.131353,23.570266 25.1156851,23.570266 L21.324047,23.570266 C21.3005452,23.570266 21.2848772,23.5780552 21.2848772,23.5858445 C21.2770433,23.5936337 21.2692093,23.601423 21.2692093,23.6247907 L21.2692093,25.8447266 C21.2692093,27.3558408 20.1959564,28.835798 18.7545072,29.3109422 L16.05179,30.4170154 C14.6965144,31.0946801 12.886869,30.8142671 11.82145,29.7471401 L10.2389895,28.1815011 C10.2233216,28.1659226 10.1998197,28.1659226 10.1919857,28.1659226 C10.1841518,28.1659226 10.1684839,28.1659226 10.144982,28.1815011 L7.46576666,30.8454241 C7.45009873,30.8610026 7.45009873,30.8765811 7.45009873,30.8921596 C7.45009873,30.8921596 7.45009873,30.9077381 7.46576666,30.9233166 L9.04822716,32.4967448 C10.1214801,33.5638718 10.4113367,35.3631882 9.72194797,36.7107282 L8.60952524,39.398019 C8.1316535,40.8312407 6.64320055,41.8983677 5.12341174,41.8983677 L2.89073231,41.8983677 C2.86723043,41.8983677 2.8515625,41.906157 2.8515625,41.9139462 C2.84372854,41.9217355 2.83589457,41.9295247 2.83589457,41.9606817 L2.83589457,45.7228888 C2.83589457,45.7462565 2.8515625,45.761835 2.8515625,45.7696243 C2.8515625,45.7696243 2.86723043,45.7852028 2.89073231,45.7852028 L5.12341174,45.7852028 C6.64320055,45.7852028 8.12381954,46.860119 8.60952524,48.2855515 L9.72194797,50.9728423 C10.4035027,52.3281715 10.1214801,54.1196987 9.04822716,55.1868257 L7.46576666,56.7524647 C7.45009873,56.7680432 7.45009873,56.7914109 7.45009873,56.7914109 C7.45009873,56.7992001 7.45009873,56.8147786 7.46576666,56.8381464 L10.144982,59.5020694 C10.1606499,59.5176479 10.1763178,59.5176479 10.1841518,59.5176479 C10.1919857,59.5176479 10.2076537,59.5176479 10.2233216,59.5020694 L11.8057821,57.9286412 C12.879035,56.8615141 14.6808465,56.5811012 16.0361221,57.2665551 L18.7466732,58.3726283 Z M23.2198661,53.5588728 C17.8300996,53.5588728 13.4430804,49.1968936 13.4430804,43.8456799 C13.4430804,38.4866769 17.8300996,34.1246977 23.2198661,34.1246977 C28.6096326,34.1246977 32.9966518,38.4866769 32.9966518,43.8456799 C32.9966518,49.1968936 28.6096326,53.5588728 23.2198661,53.5588728 Z M23.2198661,36.9054594 C19.3733903,36.9054594 16.2398051,40.0211589 16.2398051,43.8456799 C16.2398051,47.6702009 19.3733903,50.7859003 23.2198661,50.7859003 C27.0663419,50.7859003 30.199927,47.6779901 30.199927,43.8456799 C30.199927,40.0133696 27.0663419,36.9054594 23.2198661,36.9054594 Z M55.3626159,34.3350074 C54.7907366,34.3350074 54.2345252,34.132487 53.7879894,33.7663923 C53.2866157,33.3457729 52.9732572,32.75379 52.9184195,32.1072824 L52.7774081,30.5104864 C52.7617402,30.4403832 52.6442308,30.307966 52.5815591,30.2845982 L52.5188874,30.2690197 L52.4640496,30.2534412 L50.2940419,29.5757766 L50.2313702,29.5446196 C50.1608645,29.5290411 50.0120192,29.5601981 49.9571815,29.6069336 L48.9152644,30.8376349 C48.4922304,31.3361468 47.8968492,31.6399275 47.2466303,31.6944522 C46.5964114,31.7489769 45.9618604,31.5464565 45.4604868,31.1336263 L43.3609847,29.3732561 C42.8596111,28.9526367 42.5540865,28.3684431 42.4914148,27.7141462 C42.4365771,27.0598493 42.6402601,26.4289202 43.0632941,25.9304083 L44.1052112,24.7074963 C44.144381,24.6451823 44.152215,24.4816081 44.1208791,24.4115048 L44.0817093,24.3569801 L44.0503735,24.3024554 L43.0084564,22.3006185 L42.9849545,22.2383045 C42.9536186,22.1759905 42.8047734,22.0903088 42.7264337,22.0825195 L41.1283053,22.222726 C40.4780864,22.2772507 39.8435354,22.0747303 39.3421617,21.6619001 C38.8407881,21.2412807 38.5352636,20.6492978 38.4725919,20.0027902 L38.237573,17.2843424 C38.1827352,16.6378348 38.3864183,16.0069057 38.8094523,15.5006045 C39.2324863,15.0020926 39.8200335,14.6983119 40.4780864,14.6437872 L42.0840488,14.51137 C42.1623884,14.4957915 42.2877318,14.3789528 42.3112337,14.3088495 L42.3269016,14.2465355 L42.3425695,14.1920108 L43.0241243,12.034389 L43.0476262,11.972075 C43.0632941,11.9019717 43.0241243,11.7461868 42.9771205,11.691662 L41.7471884,10.6712705 C41.2458147,10.250651 40.9402902,9.6664574 40.8854524,9.01216053 C40.8306147,8.35786365 41.0342977,7.72693452 41.4494978,7.23621187 L43.2121394,5.14869327 C43.6351734,4.65018136 44.2305546,4.34640067 44.8807735,4.29187593 C45.5309924,4.23735119 46.1733774,4.43987165 46.674751,4.85270182 L47.9125172,5.88867187 C47.9751889,5.92761812 48.1397021,5.93540737 48.2023738,5.90425037 L48.2650455,5.86530413 L48.3198832,5.83414714 L50.3332117,4.80596633 L50.3880495,4.78259859 C50.4507212,4.75144159 50.5368947,4.60344587 50.5368947,4.52555339 L50.3958834,2.92875744 C50.3410457,2.28224981 50.5447287,1.65132068 50.9599287,1.15280878 C51.3829627,0.654296875 51.9783439,0.350516183 52.6285628,0.288202195 L55.3626159,0.0545247396 C56.0128348,-7.61890551e-15 56.6552198,0.202520461 57.1487594,0.623139881 C57.6501331,1.0437593 57.9556576,1.63574219 58.0104954,2.28224981 L58.1515067,3.87904576 C58.1671746,3.949149 58.2846841,4.08156622 58.3551897,4.10493397 L58.4178614,4.12051246 L58.4726992,4.13609096 L60.6348729,4.81375558 L60.6975446,4.84491257 C60.7602163,4.86049107 60.9168956,4.82154483 60.9795673,4.77480934 L62.0214844,3.54410807 C62.4445184,3.04559617 63.0398996,2.74181548 63.6901185,2.68729074 C64.3403374,2.632766 64.9748884,2.83528646 65.476262,3.24811663 L67.5757641,5.00069754 C68.0771377,5.42131696 68.3826623,6.01329985 68.445334,6.65980748 C68.5001717,7.3063151 68.2964887,7.93724423 67.8812886,8.43575614 L66.8393716,9.65866815 C66.8002018,9.72098214 66.7923678,9.88455636 66.8237036,9.9546596 L66.8628735,10.0091843 L66.8942093,10.0637091 L67.9282924,12.0577567 L67.9517943,12.1122814 C67.9831302,12.1745954 68.1398094,12.2680664 68.2103151,12.2680664 L69.8084435,12.1278599 C70.4586624,12.0733352 71.0932134,12.2758557 71.5945871,12.6964751 C72.0959607,13.1170945 72.4014852,13.7090774 72.456323,14.355585 L72.6913419,17.0740327 C72.7461796,17.7283296 72.5424966,18.3592587 72.1194626,18.8577706 C71.6964286,19.3562826 71.1088814,19.6600632 70.4508285,19.714588 L68.8448661,19.8547945 C68.7743604,19.870373 68.641183,19.9872117 68.6176811,20.0573149 L68.6020132,20.1196289 L68.5863453,20.1741536 L67.9047905,22.3239862 L67.8812886,22.3863002 C67.8656207,22.4486142 67.9047905,22.6121884 67.9517943,22.6667132 L69.1817265,23.694894 C69.6831001,24.1155134 69.9886247,24.7074963 70.0434624,25.3540039 C70.0983001,26.0083008 69.8946171,26.6392299 69.4715831,27.1377418 L67.7011075,29.2252604 C67.2780735,29.7237723 66.6826923,30.027553 66.0324734,30.0820778 C65.3822545,30.1366025 64.7477035,29.934082 64.2463298,29.5134626 L63.0242316,28.4852818 C62.9615599,28.4463356 62.7970467,28.4385463 62.734375,28.4697033 L62.6795373,28.5086496 L60.6035371,29.5757766 L60.5486993,29.5991443 C60.4860276,29.6303013 60.3920201,29.7782971 60.3920201,29.8561895 L60.5330314,31.4451962 C60.5878692,32.0917039 60.3841861,32.7304222 59.9611521,33.2289342 C59.5381181,33.7274461 58.942737,34.0312267 58.292518,34.0857515 L55.558465,34.3194289 C55.5036272,34.3272182 55.4331216,34.3350074 55.3626159,34.3350074 Z M53.2552799,27.5895182 C54.4695441,27.8855097 55.4566235,29.0305292 55.5662989,30.2690197 L55.6759744,31.5230887 L57.7284727,31.3517253 L57.6187972,30.0976563 C57.5091217,28.8591657 58.292518,27.5661505 59.4362766,27.0598493 L61.2929258,26.109561 C62.3661787,25.4552641 63.8702996,25.5643136 64.8338771,26.3666062 L65.8131224,27.1844773 L67.1448961,25.6188384 L66.1656508,24.8009673 C65.2020733,23.9986747 64.841711,22.5420852 65.3039148,21.3814872 L65.9306319,19.3952288 C66.2361564,18.1878953 67.379915,17.20645 68.6255151,17.0974005 L69.8946171,16.988351 L69.714436,14.9475679 L68.445334,15.0566174 C67.1918999,15.1656669 65.899296,14.386742 65.3900884,13.2495117 L64.434345,11.4034598 C63.784126,10.3363328 63.8938015,8.84079706 64.7006997,7.89050874 L65.5232658,6.91685268 L63.9408053,5.60046968 L63.1182392,6.57412574 C62.311341,7.53220331 60.8463899,7.89050874 59.6791295,7.43094308 L57.6893029,6.8078032 C56.4750386,6.51181176 55.4879593,5.36679222 55.3782838,4.12830171 L55.2686083,2.86644345 L53.2161101,3.03780692 L53.3257855,4.29966518 C53.435461,5.54594494 52.6520647,6.83117094 51.5083061,7.3374721 L49.6516569,8.28776042 C48.578404,8.93426804 47.0742831,8.82521856 46.1107057,8.02292597 L45.1314603,7.20505487 L43.8075206,8.77069382 L44.786766,9.58856492 C45.7503434,10.3908575 46.1107057,11.847447 45.6485019,13.008045 L45.0217849,14.9865141 C44.7240943,16.1938477 43.5725017,17.175293 42.3269016,17.2843424 L41.0577996,17.3933919 L41.2301468,19.434175 L42.4992488,19.3251256 C43.7526829,19.2238653 45.0452867,19.9950009 45.5466604,21.1322312 L46.5024038,22.9782831 C47.1526228,24.0454102 47.0429473,25.5487351 46.2360491,26.4990234 L45.413483,27.4648903 L46.9959435,28.7890625 L47.8185096,27.8154064 C48.6254078,26.8573289 50.0903589,26.4990234 51.2576193,26.9585891 L53.2552799,27.5895182 Z M55.4644574,24.6140253 C53.7096497,24.6140253 52.0253477,24.0064639 50.6700721,22.8692336 C49.1424493,21.5917969 48.2102078,19.8002697 48.0378606,17.8218006 C47.8655134,15.8433315 48.4843965,13.9193871 49.7691664,12.4082729 C51.0539363,10.8893694 52.8557478,9.96244885 54.8455743,9.79108538 C56.8354009,9.61972191 58.7703898,10.2350725 60.2901786,11.5125093 C61.8178013,12.7899461 62.7500429,14.5814732 62.9223901,16.5599423 C63.0947373,18.5384115 62.4758542,20.4623558 61.1910843,21.9734701 C59.9063144,23.4923735 58.1045029,24.4192941 56.1146763,24.5906576 C55.8953254,24.606236 55.6838084,24.6140253 55.4644574,24.6140253 Z M55.4879593,12.5484794 C55.3547819,12.5484794 55.2137706,12.5562686 55.0805932,12.5640578 C53.8349931,12.6731073 52.7069025,13.2495117 51.9078383,14.1998 C51.1009401,15.1500884 50.7170759,16.3496326 50.8267514,17.5881231 C50.9364269,18.8266137 51.5161401,19.9482654 52.4718836,20.7427688 C53.4276271,21.5450614 54.6340573,21.9189453 55.8796575,21.8176851 C57.1252576,21.7086356 58.2533482,21.1322312 59.0524124,20.1819429 C59.8593106,19.2316546 60.2431748,18.0321103 60.1334993,16.7936198 C60.0238238,15.5551293 59.4441106,14.4334775 58.4883671,13.6389741 C57.6344651,12.9223633 56.5847141,12.5484794 55.4879593,12.5484794 Z" id="形状"></path>
        </g>
    </g>
</svg>