<svg id="图层_1" data-name="图层 1" xmlns="http://www.w3.org/2000/svg" viewBox="0 0 256 256"><defs><style>.cls-1{fill:#01abdf;}.cls-2,.cls-3{fill:#fff;}.cls-2{opacity:0.3;}</style></defs><title>文件图标－转区</title><path class="cls-1" d="M218,256H38a20.06,20.06,0,0,1-20-20V20A20.06,20.06,0,0,1,38,0H158l80,80V236A20.06,20.06,0,0,1,218,256Z"/><path class="cls-2" d="M238,80H178a20.06,20.06,0,0,1-20-20V0Z"/><path class="cls-3" d="M81.73,211.78C79,214.53,74.94,216,70.21,216H54.59V170.44H70.21c4.74,0,8.77,1.47,11.52,4.22,4.74,4.74,4.48,11.71,4.48,18S86.46,207,81.73,211.78Zm-3.39-33.66c-2.37-2.43-5.44-3.33-9-3.33H59.46v36.86h9.92c3.52,0,6.59-.9,9-3.33,3.14-3.26,3-10,3-15.61S81.47,181.38,78.33,178.12Z"/><path class="cls-3" d="M125.12,211.65a16.69,16.69,0,0,1-23.29,0c-4.29-4.29-4.29-8.77-4.29-18.43s0-14.14,4.29-18.43a16.69,16.69,0,0,1,23.29,0c4.29,4.29,4.29,8.77,4.29,18.43S129.4,207.36,125.12,211.65Zm-3.78-34a11.12,11.12,0,0,0-15.74,0c-2.88,2.94-3.2,6-3.2,15.55s0.32,12.61,3.2,15.55a11.12,11.12,0,0,0,15.74,0c2.88-2.94,3.2-6,3.2-15.55S124.22,180.61,121.34,177.67Z"/><path class="cls-3" d="M156.67,216.38A16.24,16.24,0,0,1,145,211.65c-4.29-4.29-4.29-8.77-4.29-18.43s0-14.14,4.29-18.43a16.24,16.24,0,0,1,11.65-4.74c8.19,0,14.27,5,15.81,13.57h-5c-1.22-5.57-5.12-9.21-10.81-9.21a11,11,0,0,0-7.87,3.2c-2.88,2.94-3.2,6.08-3.2,15.62s0.32,12.67,3.2,15.62a11,11,0,0,0,7.87,3.2c5.7,0,9.73-3.65,10.94-9.21h4.86C171,211.39,164.8,216.38,156.67,216.38Z"/><path class="cls-3" d="M206.27,216L195.2,196.87,184.06,216h-5.5l14-23.36-13.06-22.21h5.63l10.11,18,10.11-18h5.63l-13.12,22.21L211.9,216h-5.63Z"/></svg>