<?xml version="1.0" encoding="UTF-8"?>
<svg width="120px" height="120px" viewBox="0 0 120 120" version="1.1" xmlns="http://www.w3.org/2000/svg" xmlns:xlink="http://www.w3.org/1999/xlink">
    <!-- Generator: Sketch 52.1 (67048) - http://www.bohemiancoding.com/sketch -->
    <title>画板</title>
    <desc>Created with Sketch.</desc>
    <g id="画板" stroke="none" stroke-width="1" fill="none" fill-rule="evenodd">
        <circle id="椭圆形" fill="#000000" fill-rule="nonzero" cx="60" cy="60" r="60"></circle>
        <g id="测试-(3)" transform="translate(32.000000, 30.000000)" fill="#FFFFFF">
            <path d="M51.5060241,12.8671875 C52.1117349,12.8671875 52.6048193,13.3560045 52.6048193,13.9564732 L52.6048193,55.5535714 C52.6048193,56.1540402 52.1117349,56.6428571 51.5060241,56.6428571 L5.4939759,56.6428571 C4.88826506,56.6428571 4.39518072,56.1540402 4.39518072,55.5535714 L4.39518072,13.9564732 C4.39518072,13.3560045 4.88826506,12.8671875 5.4939759,12.8671875 L51.5060241,12.8671875 Z M51.5060241,8.51004464 L5.4939759,8.51004464 C2.45992771,8.51004464 0,10.948683 0,13.9564732 L0,55.5535714 C0,58.5613616 2.45992771,61 5.4939759,61 L51.5060241,61 C54.5400723,61 57,58.5613616 57,55.5535714 L57,13.9564732 C57,10.948683 54.5400723,8.51004464 51.5060241,8.51004464 Z" id="形状" fill-rule="nonzero"></path>
            <path d="M34.5433735,4.35714286 C35.1490843,4.35714286 35.6421687,4.84595982 35.6421687,5.44642857 L35.6421687,8.51004464 L21.2204819,8.51004464 L21.2204819,5.44642857 C21.2204819,4.84595982 21.7135663,4.35714286 22.3192771,4.35714286 L34.5433735,4.35714286 Z M34.5433735,0 L22.3192771,0 C19.2852289,0 16.8253012,2.43863839 16.8253012,5.44642857 L16.8253012,12.8671875 L40.0373494,12.8671875 L40.0373494,5.44642857 C40.0373494,2.43863839 37.5774217,0 34.5433735,0 Z M12.1176506,37.3046317 C11.5552048,37.3046317 10.992759,37.5170424 10.5635422,37.9425446 C9.70510843,38.7935491 9.70510843,40.1728571 10.5635422,41.0231808 L19.4988072,49.8811161 C19.9280241,50.3066183 20.4904699,50.519029 21.0529157,50.519029 C21.6153614,50.519029 22.1778072,50.3066183 22.6070241,49.8811161 C23.4654578,49.0301116 23.4654578,47.6508036 22.6070241,46.8004799 L13.6710723,37.9425446 C13.2425422,37.5170424 12.6800964,37.3046317 12.1176506,37.3046317 Z" id="形状" fill-rule="nonzero"></path>
            <path d="M21.0522289,37.3046317 C20.4897831,37.3046317 19.9273373,37.5170424 19.4981205,37.9425446 L10.5635422,46.8004799 C9.70510843,47.6514844 9.70510843,49.0307924 10.5635422,49.8811161 C10.992759,50.3066183 11.5552048,50.519029 12.1176506,50.519029 C12.6800964,50.519029 13.2425422,50.3066183 13.671759,49.8811161 L22.6070241,41.0231808 C23.4654578,40.1721763 23.4654578,38.7928683 22.6070241,37.9425446 C22.1771205,37.5170424 21.6146747,37.3046317 21.0522289,37.3046317 Z M15.2492169,29.5972545 C14.4917349,29.5972545 13.7328795,29.3623772 13.0969518,28.8851339 L8.43119277,25.5444308 C7.44708434,24.8397991 7.22595181,23.478192 7.93604819,22.5026004 C8.64683133,21.5270089 10.0203253,21.3077902 11.0044337,22.0117411 L15.1764217,24.9991071 L21.9257711,18.5348772 C22.7986265,17.6988504 24.1899759,17.7226786 25.0333012,18.5879799 C25.8766265,19.4532812 25.8525904,20.8325893 24.9797349,21.6686161 L17.7331807,28.6080469 C17.0491807,29.2636607 16.1502289,29.5972545 15.2492169,29.5972545 Z M46.9048193,22.9430804 L31.3843373,22.9430804 C30.1708554,22.9430804 29.186747,23.9186719 29.186747,25.1216518 C29.186747,26.3246317 30.1708554,27.3002232 31.3843373,27.3002232 L46.9048193,27.3002232 C48.1183012,27.3002232 49.1024096,26.3246317 49.1024096,25.1216518 C49.1024096,23.9186719 48.1183012,22.9430804 46.9048193,22.9430804 Z" id="形状" fill-rule="nonzero"></path>
            <path d="M45.8746988,41.7332589 L30.3542169,41.7332589 C29.1407349,41.7332589 28.1566265,42.7088504 28.1566265,43.9118304 C28.1566265,45.1148103 29.1407349,46.0904018 30.3542169,46.0904018 L45.8746988,46.0904018 C47.0881807,46.0904018 48.0722892,45.1148103 48.0722892,43.9118304 C48.0722892,42.7088504 47.0881807,41.7332589 45.8746988,41.7332589 Z" id="路径"></path>
        </g>
    </g>
</svg>