<?xml version="1.0" encoding="UTF-8"?>
<svg width="120px" height="120px" viewBox="0 0 120 120" version="1.1" xmlns="http://www.w3.org/2000/svg" xmlns:xlink="http://www.w3.org/1999/xlink">
    <!-- Generator: Sketch 52.1 (67048) - http://www.bohemiancoding.com/sketch -->
    <title>画板</title>
    <desc>Created with Sketch.</desc>
    <g id="画板" stroke="none" stroke-width="1" fill="none" fill-rule="evenodd">
        <circle id="椭圆形" fill="#000000" fill-rule="nonzero" cx="60" cy="60" r="60"></circle>
        <g id="分期商城－已发货" transform="translate(27.000000, 31.000000)" fill="#FFFFFF">
            <path d="M59.968,0.0613364362 L21.968,0.0613364362 C19.762,0.0613364362 17.968,1.85056516 17.968,4.05069814 L17.968,11.670379 L1.102,20.0959109 C0.428,20.433012 0,21.1251662 0,21.8791556 L0,48.1131981 C0,49.2162566 0.894,50.107879 2,50.107879 C3.106,50.107879 4,49.2162566 4,48.1131981 L4,23.1118684 L20.866,14.6863364 C21.542,14.3492354 21.97,13.6570811 21.97,12.9030918 L21.97,4.05069814 L59.97,4.05069814 L59.97,47.6843418 C59.97,48.7874003 60.864,49.6790226 61.97,49.6790226 C63.076,49.6790226 63.97,48.7874003 63.97,47.6843418 L63.97,4.05069814 C63.968,1.85056516 62.174,0.0613364362 59.968,0.0613364362 Z" id="路径"></path>
            <path d="M10.084,34.0127992 L20,34.0127992 C21.106,34.0127992 22,33.1191822 22,32.0181184 L22,21.9609375 C22,20.8598737 21.106,19.9662566 20,19.9662566 C18.894,19.9662566 18,20.8598737 18,21.9609375 L18,30.0234375 L10.084,30.0234375 C8.978,30.0234375 8.084,30.9170545 8.084,32.0181184 C8.084,33.1191822 8.978,34.0127992 10.084,34.0127992 Z" id="路径"></path>
            <path d="M48,40.0387301 C43.172,40.0387301 39.132,43.4715758 38.202,48.0174535 L25.422,48.0174535 C24.492,43.4715758 20.454,40.0387301 15.624,40.0387301 C10.11,40.0387301 5.624,44.5127992 5.624,50.0121343 C5.624,55.5114694 10.11,59.9855386 15.624,59.9855386 C20.452,59.9855386 24.492,56.5526928 25.422,52.0068152 L38.202,52.0068152 C39.132,56.5526928 43.17,59.9855386 48,59.9855386 C53.514,59.9855386 58,55.5114694 58,50.0121343 C58,44.5127992 53.514,40.0387301 48,40.0387301 Z M15.624,55.9961769 C12.316,55.9961769 9.624,53.3113364 9.624,50.0121343 C9.624,46.7129322 12.316,44.0280918 15.624,44.0280918 C18.932,44.0280918 21.624,46.7129322 21.624,50.0121343 C21.624,53.3113364 18.934,55.9961769 15.624,55.9961769 Z M48,55.9961769 C44.692,55.9961769 42,53.3113364 42,50.0121343 C42,46.7129322 44.692,44.0280918 48,44.0280918 C51.308,44.0280918 54,46.7129322 54,50.0121343 C54,53.3113364 51.308,55.9961769 48,55.9961769 Z" id="形状" fill-rule="nonzero"></path>
        </g>
    </g>
</svg>